<svg width="217" height="48" viewBox="0 0 217 48" fill="none" xmlns="http://www.w3.org/2000/svg">
<path d="M4.34375 1.5H12.2812L23.9688 34.9062L35.6562 1.5H43.5938L27.1562 47H20.7812L4.34375 1.5ZM0.0625 1.5H7.96875L9.40625 34.0625V47H0.0625V1.5ZM39.9688 1.5H47.9062V47H38.5312V34.0625L39.9688 1.5ZM93.5 23.1875V25.3438C93.5 28.8021 93.0312 31.9062 92.0938 34.6562C91.1562 37.4062 89.8333 39.75 88.125 41.6875C86.4167 43.6042 84.375 45.0729 82 46.0938C79.6458 47.1146 77.0312 47.625 74.1562 47.625C71.3021 47.625 68.6875 47.1146 66.3125 46.0938C63.9583 45.0729 61.9167 43.6042 60.1875 41.6875C58.4583 39.75 57.1146 37.4062 56.1562 34.6562C55.2188 31.9062 54.75 28.8021 54.75 25.3438V23.1875C54.75 19.7083 55.2188 16.6042 56.1562 13.875C57.0938 11.125 58.4167 8.78125 60.125 6.84375C61.8542 4.90625 63.8958 3.42708 66.25 2.40625C68.625 1.38542 71.2396 0.875 74.0938 0.875C76.9688 0.875 79.5833 1.38542 81.9375 2.40625C84.3125 3.42708 86.3542 4.90625 88.0625 6.84375C89.7917 8.78125 91.125 11.125 92.0625 13.875C93.0208 16.6042 93.5 19.7083 93.5 23.1875ZM84.0312 25.3438V23.125C84.0312 20.7083 83.8125 18.5833 83.375 16.75C82.9375 14.9167 82.2917 13.375 81.4375 12.125C80.5833 10.875 79.5417 9.9375 78.3125 9.3125C77.0833 8.66667 75.6771 8.34375 74.0938 8.34375C72.5104 8.34375 71.1042 8.66667 69.875 9.3125C68.6667 9.9375 67.6354 10.875 66.7812 12.125C65.9479 13.375 65.3125 14.9167 64.875 16.75C64.4375 18.5833 64.2188 20.7083 64.2188 23.125V25.3438C64.2188 27.7396 64.4375 29.8646 64.875 31.7188C65.3125 33.5521 65.9583 35.1042 66.8125 36.375C67.6667 37.625 68.7083 38.5729 69.9375 39.2188C71.1667 39.8646 72.5729 40.1875 74.1562 40.1875C75.7396 40.1875 77.1458 39.8646 78.375 39.2188C79.6042 38.5729 80.6354 37.625 81.4688 36.375C82.3021 35.1042 82.9375 33.5521 83.375 31.7188C83.8125 29.8646 84.0312 27.7396 84.0312 25.3438ZM115.969 37.5L126.688 1.5H137.125L121.281 47H114.406L115.969 37.5ZM106.094 1.5L116.781 37.5L118.406 47H111.469L95.7188 1.5H106.094ZM171.906 39.6875V47H147.688V39.6875H171.906ZM150.75 1.5V47H141.375V1.5H150.75ZM168.75 20.0312V27.1562H147.688V20.0312H168.75ZM171.875 1.5V8.84375H147.688V1.5H171.875ZM195.875 9.28125L183.5 47H173.531L190.438 1.5H196.781L195.875 9.28125ZM206.156 47L193.75 9.28125L192.75 1.5H199.156L216.156 47H206.156ZM205.594 30.0625V37.4062H181.562V30.0625H205.594Z" fill="white"/>
</svg>
